<svg width="16" height="18" viewBox="0 0 16 18" xmlns="http://www.w3.org/2000/svg"><g id="Artboard" stroke="none" stroke-width="1" fill="none" fill-rule="evenodd"><path d="M13.203125 16.796875c.2760417 0 .5351562-.0520833.7773438-.15625.2421874-.1041667.453125-.2460938.6328124-.4257812.1796876-.1796876.3229167-.3919271.4296876-.6367188.1067708-.2447917.1601562-.5052083.1601562-.78125v-9.59375c0-.07291667-.0169271-.13932292-.0507812-.19921875-.0338542-.05989583-.0820313-.10807292-.1445313-.14453125-.0572917-.03645833-.1210937-.05598958-.1914063-.05859375-.0703124-.00260417-.1341145.01171875-.1914062.04296875-.0052083 0-.1484375.06510417-.4296875.1953125-.28125.13020833-.609375.25520833-.984375.375-.6302083.20833333-1.0794271.30078125-1.3476563.27734375-.2682291-.0234375-.4361979-.05598958-.5039062-.09765625-.0208333-.015625-.0520833-.04817708-.09375-.09765625s-.0625-.14713542-.0625-.29296875c0-.13020833.0273438-.25260417.0820312-.3671875.0546876-.11458333.1210938-.2421875.1992188-.3828125.1145833-.19791667.2291667-.42708333.34375-.6875S12 3.18229167 12 2.796875c0-.265625-.0885417-.52473958-.265625-.77734375s-.4270833-.47265625-.75-.66015625c-.3020833-.18229167-.6419271-.32161458-1.01953125-.41796875C9.58723958.84505208 9.19791667.796875 8.796875.796875s-.7890625.04817708-1.1640625.14453125-.71354167.23567708-1.015625.41796875c-.32291667.1875-.57291667.40755208-.75.66015625-.17708333.25260417-.265625.51171875-.265625.77734375 0 .38541667.05729167.70833333.171875.96875s.22916667.48958333.34375.6875c.078125.140625.14453125.26822917.19921875.3828125.0546875.11458333.08203125.23697917.08203125.3671875 0 .10416667-.015625.18098958-.046875.23046875-.03125.04947917-.06770833.08723958-.109375.11328125-.078125.05208333-.28125.09895833-.609375.140625S4.73958333 5.64322917 3.9375 5.4296875c-.47395833-.125-.88932292-.25520833-1.24609375-.390625C2.33463542 4.90364583 2.15625 4.83333333 2.15625 4.828125c-.05729167-.02083333-.11458333-.02994792-.171875-.02734375-.05729167.00260417-.11197917.01692708-.1640625.04296875s-.09635417.06119792-.1328125.10546875-.0625.09505208-.078125.15234375c0 .01041667-.01432292.07291667-.04296875.1875s-.0625.265625-.1015625.453125-.08203125.40234375-.12890625.64453125-.08854167.49869792-.125.76953125c-.15625 1.02083333-.1953125 1.73046875-.1171875 2.12890625s.171875.66796875.28125.80859375c.078125.0989583.17057292.1744792.27734375.2265625.10677083.0520833.22265625.078125.34765625.078125.27083333 0 .50260417-.0859375.6953125-.2578125.19270833-.171875.37760417-.359375.5546875-.5625.171875-.19791667.34635417-.37760417.5234375-.5390625.17708333-.16145833.38541667-.2421875.625-.2421875.11979167 0 .25.05729167.390625.171875s.27083333.27734375.390625.48828125c.11979167.2109375.22005208.46354167.30078125.75781255.08072917.2942708.12109375.6236979.12109375.9882812 0 .359375-.04036458.6861979-.12109375.9804688-.08072917.2942708-.18098958.546875-.30078125.7578124-.11979167.2109376-.25.373698-.390625.4882813s-.27083333.171875-.390625.171875c-.23958333 0-.44791667-.0807292-.625-.2421875-.17708333-.1614583-.3515625-.3411458-.5234375-.5390625-.17708333-.203125-.36197917-.390625-.5546875-.5625C2.50260417 12.0859375 2.27083333 12 2 12c-.13541667 0-.26041667.0286458-.375.0859375-.11458333.0572917-.2109375.140625-.2890625.25-.09895833.1302083-.18229167.3697917-.25.71875C1.01822917 13.4036458 1.0625 14 1.21875 14.84375c.078125.4375.16276042.8216146.25390625 1.1523438.09114583.3307291.13932292.5039062.14453125.5195312.02604167.0833333.07421875.1510417.14453125.203125s.14973958.078125.23828125.078125h11.203125Zm0-.796875H2.3046875c-.04166667-.15625-.09375-.3619792-.15625-.6171875s-.1171875-.5234375-.1640625-.8046875c-.13020833-.7447917-.16536458-1.2252604-.10546875-1.4414062.05989583-.2161459.09505208-.326823.10546875-.3320313l.00390625-.0039063c.00260417-.0026041.00651042-.0039062.01171875-.0039062.08854167 0 .18880208.0572917.30078125.171875.11197917.1145833.22526042.2395833.33984375.375.203125.234375.44140625.46875.71484375.703125s.62109375.3515625 1.04296875.3515625c.27083333 0 .53125-.0885417.78125-.265625s.47135417-.4270833.6640625-.75c.17708333-.3020833.31380208-.640625.41015625-1.015625.09635417-.375.14453125-.7630208.14453125-1.1640625 0-.4010417-.04817708-.7903646-.14453125-1.1679688-.09635417-.37760412-.23307292-.71744787-.41015625-1.0195312-.19270833-.32291667-.4140625-.57291667-.6640625-.75C4.9296875 8.08854167 4.66927083 8 4.3984375 8c-.421875 0-.76953125.1171875-1.04296875.3515625S2.84375 8.82291667 2.640625 9.0625c-.109375.13020833-.22005208.25130208-.33203125.36328125-.11197917.11197917-.21223958.17057292-.30078125.17578125-.02083333-.02604167-.0625-.1796875-.125-.4609375s-.02864583-.8671875.1015625-1.7578125c.04166667-.31770833.09114583-.62109375.1484375-.91015625s.109375-.53255208.15625-.73046875c.171875.0625.3828125.13541667.6328125.21875.25.08333333.515625.16145833.796875.234375.359375.09895833.69010417.171875.9921875.21875s.57682292.07161458.82421875.07421875c.24739583.00260417.46614583-.01953125.65625-.06640625.19010417-.046875.35546875-.1171875.49609375-.2109375.11458333-.078125.22916667-.19661458.34375-.35546875.11458333-.15885417.171875-.37630208.171875-.65234375 0-.234375-.04166667-.44270833-.125-.625-.08333333-.18229167-.17447917-.35677083-.2734375-.5234375-.10416667-.18229167-.19791667-.36848958-.28125-.55859375-.08333333-.19010417-.125-.42317708-.125-.69921875 0-.11979167.05729167-.24869792.171875-.38671875s.27734375-.26692708.48828125-.38671875c.2109375-.11979167.46354167-.22005208.7578125-.30078125.29427083-.08072917.62109375-.12109375.98046875-.12109375.36458333 0 .69401042.04036458.98828125.12109375.29427085.08072917.54687495.18098958.75781255.30078125.2109374.11979167.3736979.24869792.4882812.38671875s.171875.26692708.171875.38671875c0 .27604167-.0416667.50911458-.125.69921875-.0833333.19010417-.1770833.37630208-.28125.55859375-.0989583.16666667-.1901042.34114583-.2734375.5234375-.0833333.18229167-.125.390625-.125.625 0 .30208333.0598958.53645833.1796875.703125.1197917.16666667.2421875.2890625.3671875.3671875s.2721354.13541667.4414063.171875c.1692708.03645833.3580729.05078125.5664062.04296875.2083333-.0078125.4388021-.03776042.6914062-.08984375.2526042-.05208333.5273438-.12760417.8242188-.2265625.171875-.05729167.3372396-.11588542.4960938-.17578125.1588541-.05989583.3033854-.11848958.4335937-.17578125v8.9765625c0 .3333333-.1171875.6171875-.3515625.8515625S13.53125 16 13.203125 16Zm0 .796875c.2760417 0 .5351562-.0520833.7773438-.15625.2421874-.1041667.453125-.2460938.6328124-.4257812.1796876-.1796876.3229167-.3919271.4296876-.6367188.1067708-.2447917.1601562-.5052083.1601562-.78125v-9.59375c0-.07291667-.0169271-.13932292-.0507812-.19921875-.0338542-.05989583-.0820313-.10807292-.1445313-.14453125-.0572917-.03645833-.1210937-.05598958-.1914063-.05859375-.0703124-.00260417-.1341145.01171875-.1914062.04296875-.0052083 0-.1484375.06510417-.4296875.1953125-.28125.13020833-.609375.25520833-.984375.375-.6302083.20833333-1.0794271.30078125-1.3476563.27734375-.2682291-.0234375-.4361979-.05598958-.5039062-.09765625-.0208333-.015625-.0520833-.04817708-.09375-.09765625s-.0625-.14713542-.0625-.29296875c0-.13020833.0273438-.25260417.0820312-.3671875.0546876-.11458333.1210938-.2421875.1992188-.3828125.1145833-.19791667.2291667-.42708333.34375-.6875S12 3.18229167 12 2.796875c0-.265625-.0885417-.52473958-.265625-.77734375s-.4270833-.47265625-.75-.66015625c-.3020833-.18229167-.6419271-.32161458-1.01953125-.41796875C9.58723958.84505208 9.19791667.796875 8.796875.796875s-.7890625.04817708-1.1640625.14453125-.71354167.23567708-1.015625.41796875c-.32291667.1875-.57291667.40755208-.75.66015625-.17708333.25260417-.265625.51171875-.265625.77734375 0 .38541667.05729167.70833333.171875.96875s.22916667.48958333.34375.6875c.078125.140625.14453125.26822917.19921875.3828125.0546875.11458333.08203125.23697917.08203125.3671875 0 .10416667-.015625.18098958-.046875.23046875-.03125.04947917-.06770833.08723958-.109375.11328125-.078125.05208333-.28125.09895833-.609375.140625S4.73958333 5.64322917 3.9375 5.4296875c-.47395833-.125-.88932292-.25520833-1.24609375-.390625C2.33463542 4.90364583 2.15625 4.83333333 2.15625 4.828125c-.05729167-.02083333-.11458333-.02994792-.171875-.02734375-.05729167.00260417-.11197917.01692708-.1640625.04296875s-.09635417.06119792-.1328125.10546875-.0625.09505208-.078125.15234375c0 .01041667-.01432292.07291667-.04296875.1875s-.0625.265625-.1015625.453125-.08203125.40234375-.12890625.64453125-.08854167.49869792-.125.76953125c-.15625 1.02083333-.1953125 1.73046875-.1171875 2.12890625s.171875.66796875.28125.80859375c.078125.0989583.17057292.1744792.27734375.2265625.10677083.0520833.22265625.078125.34765625.078125.27083333 0 .50260417-.0859375.6953125-.2578125.19270833-.171875.37760417-.359375.5546875-.5625.171875-.19791667.34635417-.37760417.5234375-.5390625.17708333-.16145833.38541667-.2421875.625-.2421875.11979167 0 .25.05729167.390625.171875s.27083333.27734375.390625.48828125c.11979167.2109375.22005208.46354167.30078125.75781255.08072917.2942708.12109375.6236979.12109375.9882812 0 .359375-.04036458.6861979-.12109375.9804688-.08072917.2942708-.18098958.546875-.30078125.7578124-.11979167.2109376-.25.373698-.390625.4882813s-.27083333.171875-.390625.171875c-.23958333 0-.44791667-.0807292-.625-.2421875-.17708333-.1614583-.3515625-.3411458-.5234375-.5390625-.17708333-.203125-.36197917-.390625-.5546875-.5625C2.50260417 12.0859375 2.27083333 12 2 12c-.13541667 0-.26041667.0286458-.375.0859375-.11458333.0572917-.2109375.140625-.2890625.25-.09895833.1302083-.18229167.3697917-.25.71875C1.01822917 13.4036458 1.0625 14 1.21875 14.84375c.078125.4375.16276042.8216146.25390625 1.1523438.09114583.3307291.13932292.5039062.14453125.5195312.02604167.0833333.07421875.1510417.14453125.203125s.14973958.078125.23828125.078125h11.203125Zm0-.796875H2.3046875c-.04166667-.15625-.09375-.3619792-.15625-.6171875s-.1171875-.5234375-.1640625-.8046875c-.13020833-.7447917-.16536458-1.2252604-.10546875-1.4414062.05989583-.2161459.09505208-.326823.10546875-.3320313l.00390625-.0039063c.00260417-.0026041.00651042-.0039062.01171875-.0039062.08854167 0 .18880208.0572917.30078125.171875.11197917.1145833.22526042.2395833.33984375.375.203125.234375.44140625.46875.71484375.703125s.62109375.3515625 1.04296875.3515625c.27083333 0 .53125-.0885417.78125-.265625s.47135417-.4270833.6640625-.75c.17708333-.3020833.31380208-.640625.41015625-1.015625.09635417-.375.14453125-.7630208.14453125-1.1640625 0-.4010417-.04817708-.7903646-.14453125-1.1679688-.09635417-.37760412-.23307292-.71744787-.41015625-1.0195312-.19270833-.32291667-.4140625-.57291667-.6640625-.75C4.9296875 8.08854167 4.66927083 8 4.3984375 8c-.421875 0-.76953125.1171875-1.04296875.3515625S2.84375 8.82291667 2.640625 9.0625c-.109375.13020833-.22005208.25130208-.33203125.36328125-.11197917.11197917-.21223958.17057292-.30078125.17578125-.02083333-.02604167-.0625-.1796875-.125-.4609375s-.02864583-.8671875.1015625-1.7578125c.04166667-.31770833.09114583-.62109375.1484375-.91015625s.109375-.53255208.15625-.73046875c.171875.0625.3828125.13541667.6328125.21875.25.08333333.515625.16145833.796875.234375.359375.09895833.69010417.171875.9921875.21875s.57682292.07161458.82421875.07421875c.24739583.00260417.46614583-.01953125.65625-.06640625.19010417-.046875.35546875-.1171875.49609375-.2109375.11458333-.078125.22916667-.19661458.34375-.35546875.11458333-.15885417.171875-.37630208.171875-.65234375 0-.234375-.04166667-.44270833-.125-.625-.08333333-.18229167-.17447917-.35677083-.2734375-.5234375-.10416667-.18229167-.19791667-.36848958-.28125-.55859375-.08333333-.19010417-.125-.42317708-.125-.69921875 0-.11979167.05729167-.24869792.171875-.38671875s.27734375-.26692708.48828125-.38671875c.2109375-.11979167.46354167-.22005208.7578125-.30078125.29427083-.08072917.62109375-.12109375.98046875-.12109375.36458333 0 .69401042.04036458.98828125.12109375.29427085.08072917.54687495.18098958.75781255.30078125.2109374.11979167.3736979.24869792.4882812.38671875s.171875.26692708.171875.38671875c0 .27604167-.0416667.50911458-.125.69921875-.0833333.19010417-.1770833.37630208-.28125.55859375-.0989583.16666667-.1901042.34114583-.2734375.5234375-.0833333.18229167-.125.390625-.125.625 0 .30208333.0598958.53645833.1796875.703125.1197917.16666667.2421875.2890625.3671875.3671875s.2721354.13541667.4414063.171875c.1692708.03645833.3580729.05078125.5664062.04296875.2083333-.0078125.4388021-.03776042.6914062-.08984375.2526042-.05208333.5273438-.12760417.8242188-.2265625.171875-.05729167.3372396-.11588542.4960938-.17578125.1588541-.05989583.3033854-.11848958.4335937-.17578125v8.9765625c0 .3333333-.1171875.6171875-.3515625.8515625S13.53125 16 13.203125 16Z" id="ppuzzle" fill="#2F3336" fill-rule="nonzero"/></g></svg>