<svg width="18" height="21" viewBox="0 0 18 21" fill="none" xmlns="http://www.w3.org/2000/svg">
<path fill-rule="evenodd" clip-rule="evenodd" d="M17.8 0.15L17.65 0H1.95L1.79162 0.00599098L1.62651 0.0251851C0.757598 0.160618 0.0842976 0.818013 0.00738239 1.65811L0 1.81364V18.358L0.00502563 18.5133L0.0204761 18.6669C0.163495 19.722 1.03494 20.3455 2.4 20.3455H17.65L17.8 20.1955V19.6114V19.2886V0.15ZM16.9999 19.568L16.9752 3.63995L13.89 3.64015V14.631L11.5 13.436L9.10999 14.631V3.64046L2.225 3.64091C1.7674 3.64091 1.45557 3.60836 1.16495 3.50202L1.04134 3.45181L0.900452 3.38244L0.833514 3.34145L0.798242 3.31595L0.775 18.2386C0.775 19.0316 1.19299 19.4651 2.05573 19.5519L2.22271 19.5641L2.4 19.5682L16.9999 19.568ZM9.88999 3.64041V13.369L11.5 12.564L13.11 13.369V3.6402L9.88999 3.64041ZM2.025 0.777273L16.9992 0.776955V2.86295L1.975 2.86364L1.84848 2.85834L1.72118 2.84201C1.26355 2.76187 0.911211 2.46178 0.82155 2.05097L0.805965 1.98531L0.8 1.82045L0.807248 1.69342L0.827081 1.58038C0.941965 1.10202 1.4265 0.777273 2.025 0.777273Z" fill="#94A1AE"/>
</svg>
