<svg width="30" height="30" viewBox="0 0 30 30" fill="none" xmlns="http://www.w3.org/2000/svg">
<circle cx="15" cy="15" r="14.5" stroke="#FFFFFF"/>
<path fill-rule="evenodd" clip-rule="evenodd" d="M7.74375 21.0774C7.41832 21.4028 7.41831 21.9305 7.74375 22.2559C8.06919 22.5814 8.59683 22.5814 8.92226 22.2559L15.5889 15.5893C15.833 15.3452 15.894 14.9874 15.772 14.6864C15.7313 14.5861 15.6703 14.4921 15.5889 14.4107C15.5888 14.4106 15.5886 14.4104 15.5884 14.4102L8.92226 7.74408C8.59683 7.41864 8.06919 7.41864 7.74375 7.74408C7.41831 8.06952 7.41831 8.59715 7.74375 8.92259L13.8212 15L7.74375 21.0774Z" fill="#FFFFFF"/>
<path fill-rule="evenodd" clip-rule="evenodd" d="M22.2562 21.0774C22.5817 21.4028 22.5817 21.9305 22.2562 22.2559C21.9308 22.5814 21.4032 22.5814 21.0777 22.2559L14.4111 15.5893C14.167 15.3452 14.106 14.9874 14.228 14.6864C14.2687 14.5861 14.3297 14.4921 14.4111 14.4107C14.4112 14.4106 14.4114 14.4104 14.4116 14.4102L21.0777 7.74408C21.4032 7.41864 21.9308 7.41864 22.2563 7.74408C22.5817 8.06952 22.5817 8.59715 22.2563 8.92259L16.1788 15L22.2562 21.0774Z" fill="#FFFFFF"/>
</svg>
