<?xml version="1.0" encoding="UTF-8"?>
<svg width="24px" height="24px" viewBox="0 0 24 24" version="1.1" xmlns="http://www.w3.org/2000/svg" xmlns:xlink="http://www.w3.org/1999/xlink">
    <title>navicon-documentation</title>
    <g id="navicon-documentation" stroke="none" stroke-width="1" fill="none" fill-rule="evenodd">
        <path d="M21.0757576,1.69204545 L21.2257576,1.84204545 L21.2257576,12.3181818 C21.2257576,12.3700873 21.2140606,12.4370788 21.1773823,12.507101 C21.113011,12.6299918 20.9922838,12.7068182 20.8257576,12.7068182 C20.5912733,12.7068182 20.4726993,12.5742754 20.4368243,12.4084077 L20.4257576,12.3187074 L20.401,5.332 L5.65075758,5.33295455 C5.19316027,5.33295455 4.88132697,5.3004071 4.59071035,5.19406825 L4.46709623,5.14385638 L4.32620934,5.07448177 L4.25927151,5.03349344 L4.224,5.008 L4.20075758,19.9306818 C4.20075758,20.7236315 4.6187512,21.1571431 5.4814848,21.2438995 L5.64846568,21.2561059 L5.82575758,21.2602273 L20.426,21.26 L20.4270274,20.9612052 L20.4378214,20.9112833 L20.4595992,20.8559006 L20.4946662,20.7975625 C20.5654606,20.6992694 20.6784334,20.6397727 20.8257576,20.6397727 C21.02868,20.6397727 21.1484021,20.7418802 21.2009836,20.8759096 L21.2217536,20.9452596 L21.2257576,20.9806818 L21.2257576,21.8875 L21.0757576,22.0375 L5.82575758,22.0375 C4.46069731,22.0375 3.58925218,21.4139988 3.44623373,20.3589635 L3.43078316,20.2053293 L3.42575758,20.05 L3.42575758,3.50568881 L3.43313987,3.35015899 C3.51005503,2.51005868 4.18335527,1.852663 5.0522649,1.71723049 L5.21737991,1.69803647 L5.37575758,1.69204545 L21.0757576,1.69204545 Z M13.5757576,9.49545455 C13.6880474,9.49545455 13.7933224,9.51237935 13.9030235,9.54862415 L14.0146237,9.59139767 L14.1470912,9.65668368 L21.8753058,13.8346091 C22.080867,13.9523396 22.1646142,14.0100745 22.2437053,14.1107359 C22.3423266,14.2362539 22.4007576,14.3876431 22.4007576,14.5375 C22.4007576,14.7308131 22.3144602,14.8749689 22.1417946,15.0385334 C22.0729123,15.0911344 22.0027795,15.132381 21.9218725,15.1678573 L21.791241,15.2174422 L21.6620025,15.2557824 L20.5152252,15.5413055 C20.4074692,15.5706935 20.3116094,15.6009635 20.2242651,15.6343396 L20.121,15.678 L22.2948633,18.0020016 L22.3785318,18.1115671 C22.5495243,18.3581026 22.6237044,18.6273603 22.6007576,18.9284091 C22.6007576,19.3066529 22.4315028,19.6578733 22.1293289,19.919867 C21.8856699,20.1524506 21.5552807,20.2715909 21.2007576,20.2715909 C20.927811,20.2715909 20.6466115,20.1829773 20.4041973,20.0190131 L20.2864401,19.9308133 L20.1665615,19.8187498 L18.066,17.589 L17.9312665,17.7829969 L17.7044587,18.1225001 L16.9086323,19.4514192 C16.8221288,19.6165623 16.7323642,19.728611 16.6130744,19.8140118 C16.4834998,19.9067754 16.328276,19.9613636 16.1757576,19.9613636 C15.9793411,19.9613636 15.8307493,19.8803135 15.6607941,19.7168049 C15.6052878,19.6505758 15.5616598,19.5829572 15.5240648,19.5047862 L15.4714662,19.3784698 L15.4314695,19.255772 L12.9540928,10.5360011 L12.9298714,10.4230586 C12.9098643,10.3275701 12.9007576,10.2632434 12.9007576,10.1943182 C12.9007576,10.0004981 12.9442434,9.85521572 13.0607941,9.71614964 C13.1850884,9.56784395 13.3704665,9.49545455 13.5757576,9.49545455 Z M13.732,10.277 L13.7450457,10.344228 L16.239,19.12 L17.073915,17.7267497 L17.1883415,17.5455007 C17.2671942,17.4240278 17.3564379,17.2925614 17.4506642,17.1588599 L17.7428828,16.758808 C17.7962283,16.6569667 17.9254559,16.5829545 18.0507576,16.5829545 C18.0997239,16.5829545 18.1483531,16.5900711 18.1995914,16.60741 L18.278774,16.6414732 L18.3600017,16.7017558 L20.7873649,19.2815994 C20.8961351,19.4027298 21.0707805,19.4704545 21.2507576,19.4704545 C21.3852793,19.4704545 21.5282912,19.4148388 21.6471862,19.3210421 C21.769857,19.2039473 21.8507576,19.027437 21.8507576,18.8806818 C21.8507576,18.8067924 21.8305665,18.7294676 21.7935678,18.6559633 L21.7510919,18.5840012 L21.6912109,18.5058763 L19.1971862,15.8391851 C19.13095,15.7759597 19.1089774,15.7175065 19.1028378,15.6204659 L19.1007576,15.5397727 L19.1059709,15.4762926 C19.1165336,15.4179506 19.1435524,15.3728304 19.1906993,15.3211968 L19.2446916,15.2666613 L19.2747836,15.2433907 C19.5285165,15.0943448 19.7377536,14.9863322 19.9399377,14.9068679 L20.0908384,14.8524275 L20.2895126,14.7976267 L21.489,14.497 L13.732,10.277 Z M11.9225696,10.9987848 C11.9529236,11.1436558 11.8834674,11.287025 11.7524492,11.3757321 L11.681987,11.4152844 L11.6001164,11.4400544 L10.1538859,11.6780209 C9.94955303,11.7170299 9.74601391,11.5713144 9.70394551,11.3705334 C9.67359158,11.2256623 9.74304773,11.0822932 9.87406596,10.993586 L9.94452817,10.9540337 L10.0263987,10.9292638 L11.4726292,10.6912973 C11.6769621,10.6522883 11.8805012,10.7980038 11.9225696,10.9987848 Z M15.4567636,6.8836255 L15.5715117,6.9379653 C15.6547323,6.99109009 15.7114376,7.07523961 15.732785,7.17463265 L15.7420277,7.25178901 L15.7371822,7.3331822 L15.7141019,7.41251831 L15.1641019,8.72501831 C15.082215,8.92043014 14.8475257,9.00296442 14.6472523,8.92649639 C14.5033641,8.87155724 14.414161,8.73793553 14.4094874,8.57889281 L14.414333,8.49749962 L14.4374133,8.41816351 L14.9874133,7.10566351 C15.0641067,6.92264504 15.2706484,6.82272259 15.4567636,6.8836255 Z M11.4731567,7.10479888 L11.5400022,7.14118532 L11.6154635,7.21016126 L12.5293289,8.29604212 C12.6951065,8.45428438 12.667374,8.73224045 12.5043289,8.8471397 C12.3911374,8.95518612 12.2344836,8.97549081 12.0860049,8.91305227 L12.0126859,8.87496088 L11.9360517,8.81142965 L11.0221862,7.72554879 C10.8564086,7.56730653 10.8841412,7.28935046 11.0471862,7.17445121 C11.160907,7.06589953 11.3332253,7.04530222 11.4731567,7.10479888 Z M20.425,2.469 L5.45075758,2.46931818 C4.85226047,2.46931818 4.3677223,2.7940605 4.25283911,3.27242431 L4.23300591,3.38546508 L4.22575758,3.5125 L4.22806716,3.64338274 C4.22895088,3.65498857 4.23014093,3.66603104 4.23172271,3.67735514 L4.24730774,3.74301485 C4.3369684,4.1538237 4.68931135,4.45391898 5.14693677,4.53405947 L5.27423575,4.55038046 L5.40075758,4.55568182 L20.425,4.555 L20.425,2.469 Z" id="Combined-Shape" fill="#475867" fill-rule="nonzero"></path>
    </g>
</svg>