<svg width="1716" height="307" viewBox="0 0 1716 307" fill="none" xmlns="http://www.w3.org/2000/svg">
<path d="M275.704 192.376C274.811 154.224 253.773 123.941 221.655 112.105V45.7037C213.544 40.5139 204.913 36.2232 195.904 32.9245V175.777C195.904 204.076 182.79 216.713 161.715 216.713C141.197 216.713 124.034 201.199 124.034 175.256C124.034 146.3 146.579 128.617 176.1 128.617C178.834 128.567 181.618 128.71 184.353 129.137V103.858C181.618 103.387 178.884 103.151 176.1 103.201C132.287 103.201 97.9551 130.086 97.9551 175.312C97.9551 218.796 128.939 241.998 163.463 241.998C179.826 241.998 193.976 236.43 203.742 226.857C213.501 217.283 221.76 203.462 221.76 179.175V139.604C239.586 148.52 250.338 170.116 250.388 194.831C250.295 241.378 207.139 280.714 156.537 280.714C155.359 280.714 154.46 280.714 153.282 280.665C118.572 280.621 88.0592 268.071 63.3441 243.313C45.5611 225.487 33.3958 202.799 28.4912 178.134C23.5866 153.418 26.0854 127.86 35.7519 104.559C45.3751 81.3069 61.6886 61.4033 82.6276 47.3964C103.567 33.3896 128.189 25.9366 153.369 25.9366V0C133.23 0 113.283 3.96209 94.6999 11.6507C76.1171 19.3393 59.1898 30.6551 44.9473 44.8542C16.1771 73.5748 0 112.576 0 153.232C0 193.883 16.1275 232.89 44.8481 261.66C73.5687 290.43 112.57 306.607 153.226 306.607H156.481C168.982 306.607 181.432 304.673 193.412 300.946C193.461 300.946 193.505 300.897 193.554 300.897C210.86 295.521 226.708 286.369 240.008 274.111C262.975 252.886 275.617 224.829 275.71 194.974C275.754 194.875 275.704 192.426 275.704 192.376Z" fill="#09090C"/>
<path d="M1502.96 236.769L1569.27 80.6436H1599.92L1665.84 236.769H1635.77L1618.61 195.906H1549.42L1532.07 236.769H1502.96ZM1558.67 171.235H1610.33L1585.08 110.712H1584.11L1558.67 171.235Z" fill="#09090C"/>
<path d="M1684.98 80.575C1695.65 83.8736 1705.87 88.446 1715.48 93.6357L1715.48 236.769H1685.01V160.609H1684.99V119.481H1684.98V80.575Z" fill="#09090C"/>
<path d="M1348.81 238.882C1335.57 238.882 1325.09 235.604 1317.38 229.049C1309.8 222.494 1306 213.882 1306 203.213C1306 192.031 1309.86 183.354 1317.57 177.185C1325.28 171.015 1336.34 167.93 1350.73 167.93H1387.37V163.11C1387.37 147.685 1378.63 139.973 1361.15 139.973C1346.36 139.973 1337.5 145.307 1334.54 155.976H1308.32C1310.5 144.022 1316.16 134.832 1325.28 128.405C1334.54 121.978 1346.56 118.765 1361.34 118.765C1377.92 118.765 1390.58 122.621 1399.32 130.333C1408.06 137.917 1412.43 148.971 1412.43 163.495V210.347H1424.96V236.761H1397.78V218.445H1389.68C1385.7 224.872 1380.3 229.885 1373.49 233.484C1366.67 237.083 1358.45 238.882 1348.81 238.882ZM1352.66 218.445C1359.22 218.445 1365.13 217.159 1370.4 214.589C1375.67 212.018 1379.78 208.612 1382.74 204.37C1385.83 200 1387.37 195.18 1387.37 189.91V186.246H1352.08C1337.95 186.246 1330.88 191.516 1330.88 202.056C1330.88 207.198 1332.8 211.247 1336.66 214.203C1340.52 217.031 1345.85 218.445 1352.66 218.445Z" fill="#09090C"/>
<path d="M1128.74 238.882C1115.5 238.882 1105.02 235.604 1097.31 229.049C1089.73 222.494 1085.93 213.882 1085.93 203.213C1085.93 192.031 1089.79 183.354 1097.5 177.185C1105.21 171.015 1116.27 167.93 1130.66 167.93H1167.3V163.11C1167.3 147.685 1158.56 139.973 1141.08 139.973C1126.29 139.973 1117.43 145.307 1114.47 155.976H1088.25C1090.43 144.022 1096.09 134.832 1105.21 128.405C1114.47 121.978 1126.49 118.765 1141.27 118.765C1157.85 118.765 1170.51 122.621 1179.25 130.333C1187.99 137.917 1192.36 148.971 1192.36 163.495V210.347H1204.89V236.761H1177.71V218.445H1169.61C1165.63 224.872 1160.23 229.885 1153.42 233.484C1146.6 237.083 1138.38 238.882 1128.74 238.882ZM1132.59 218.445C1139.15 218.445 1145.06 217.159 1150.33 214.589C1155.6 212.018 1159.71 208.612 1162.67 204.37C1165.75 200 1167.3 195.18 1167.3 189.91V186.246H1132.01C1117.87 186.246 1110.81 191.516 1110.81 202.056C1110.81 207.198 1112.73 211.247 1116.59 214.203C1120.45 217.031 1125.78 218.445 1132.59 218.445Z" fill="#09090C"/>
<path d="M927.957 236.761V80.5894H986.57C1003.54 80.5894 1018.19 83.7385 1030.53 90.0368C1042.87 96.2066 1052.32 105.14 1058.87 116.837C1065.56 128.534 1068.9 142.48 1068.9 158.675C1068.9 174.742 1065.56 188.624 1058.87 200.321C1052.19 212.018 1042.68 221.016 1030.34 227.314C1018 233.612 1003.41 236.761 986.57 236.761H927.957ZM954.757 214.01H986.57C1004.31 214.01 1017.93 209.062 1027.44 199.164C1037.08 189.267 1041.9 175.771 1041.9 158.675C1041.9 141.451 1037.15 127.955 1027.64 118.186C1018.13 108.289 1004.44 103.34 986.57 103.34H954.757V214.01Z" fill="#09090C"/>
<path d="M695.131 239.075C682.92 239.075 672.251 236.633 663.125 231.748C654.127 226.735 647.122 219.73 642.109 210.733C637.096 201.735 634.59 191.131 634.59 178.92C634.59 166.709 637.032 156.105 641.916 147.107C646.929 138.109 653.999 131.168 663.125 126.284C672.251 121.271 682.984 118.765 695.323 118.765C707.791 118.765 718.524 121.207 727.522 126.091C736.519 130.976 743.46 137.917 748.345 146.914C753.229 155.912 755.671 166.58 755.671 178.92C755.671 191.131 753.229 201.799 748.345 210.925C743.46 219.923 736.455 226.864 727.329 231.748C718.331 236.633 707.599 239.075 695.131 239.075ZM695.131 216.324C706.056 216.324 714.475 212.982 720.388 206.298C726.429 199.614 729.45 190.488 729.45 178.92C729.45 167.094 726.429 157.904 720.388 151.349C714.475 144.793 706.056 141.516 695.131 141.516C684.334 141.516 675.914 144.858 669.873 151.541C663.832 158.097 660.811 167.223 660.811 178.92C660.811 190.488 663.832 199.614 669.873 206.298C675.914 212.982 684.334 216.324 695.131 216.324Z" fill="#09090C"/>
<path d="M558.213 239.075C546.002 239.075 535.333 236.633 526.207 231.748C517.209 226.735 510.204 219.73 505.191 210.733C500.178 201.735 497.672 191.131 497.672 178.92C497.672 166.709 500.114 156.105 504.998 147.107C510.011 138.109 517.081 131.168 526.207 126.284C535.333 121.271 546.066 118.765 558.405 118.765C570.874 118.765 581.606 121.207 590.604 126.091C599.601 130.976 606.542 137.917 611.427 146.914C616.311 155.912 618.753 166.58 618.753 178.92C618.753 191.131 616.311 201.799 611.427 210.925C606.542 219.923 599.537 226.864 590.411 231.748C581.413 236.633 570.681 239.075 558.213 239.075ZM558.213 216.324C569.138 216.324 577.557 212.982 583.47 206.298C589.511 199.614 592.532 190.488 592.532 178.92C592.532 167.094 589.511 157.904 583.47 151.349C577.557 144.793 569.138 141.516 558.213 141.516C547.416 141.516 538.996 144.858 532.955 151.541C526.914 158.097 523.893 167.223 523.893 178.92C523.893 190.488 526.914 199.614 532.955 206.298C538.996 212.982 547.416 216.324 558.213 216.324Z" fill="#09090C"/>
<path d="M405.201 239.075C390.162 239.075 376.923 235.733 365.483 229.049C354.043 222.365 345.11 212.982 338.683 200.9C332.256 188.817 329.043 174.742 329.043 158.675C329.043 142.608 332.385 128.533 339.069 116.451C345.753 104.369 355.072 94.9854 367.026 88.3015C378.979 81.6176 392.926 78.2756 408.864 78.2756C421.332 78.2756 432.386 80.3965 442.027 84.6382C451.667 88.7514 459.508 94.7283 465.549 102.569C471.719 110.281 475.703 119.664 477.503 130.719H449.546C447.875 121.464 443.505 114.33 436.435 109.317C429.366 104.304 420.175 101.798 408.864 101.798C398.196 101.798 388.877 104.111 380.908 108.739C373.067 113.366 366.961 119.986 362.591 128.598C358.221 137.21 356.036 147.3 356.036 158.868C356.036 170.565 358.221 180.784 362.591 189.524C367.09 198.136 373.26 204.884 381.1 209.769C388.941 214.524 398.067 216.902 408.479 216.902C416.576 216.902 423.839 215.553 430.266 212.853C436.692 210.026 441.77 206.234 445.497 201.478C449.353 196.722 451.281 191.324 451.281 185.282V177.185H405.779V155.976H455.716C462.785 155.976 468.184 157.776 471.911 161.375C475.639 164.845 477.503 169.922 477.503 176.606V236.761H452.438V216.131H451.474C448.004 223.329 442.155 228.985 433.929 233.098C425.831 237.083 416.255 239.075 405.201 239.075Z" fill="#09090C"/>
<path fill-rule="evenodd" clip-rule="evenodd" d="M862.887 80.5786C872.061 83.9375 880.849 88.3072 889.107 93.5918V96.1065L889.123 210.347H902.233V236.761H875.048V218.445H866.95C862.966 225.129 857.567 230.27 850.754 233.869C844.07 237.34 835.972 239.075 826.461 239.075C814.764 239.075 804.803 236.633 796.576 231.748C788.35 226.735 782.116 219.73 777.874 210.733C773.632 201.735 771.512 191.13 771.512 178.92C771.512 166.709 773.569 156.105 777.682 147.107C781.924 137.981 787.964 130.976 795.805 126.092C803.774 121.207 813.222 118.765 824.148 118.765C833.145 118.765 840.858 120.5 847.284 123.971C853.711 127.312 858.659 132.133 862.13 138.431H862.901L862.887 80.5786ZM830.896 141.323C820.228 141.323 812.001 144.665 806.216 151.349C800.561 158.032 797.733 167.223 797.733 178.92C797.733 190.616 800.561 199.808 806.216 206.492C812.001 213.175 820.228 216.517 830.896 216.517C840.665 216.517 848.441 213.753 854.225 208.226C860.009 202.699 862.901 195.244 862.901 185.861V171.979C862.901 162.596 860.009 155.141 854.225 149.614C848.441 144.087 840.665 141.323 830.896 141.323Z" fill="#09090C"/>
<path d="M1237.19 80.6027C1246.23 83.9127 1254.89 88.4355 1263.03 93.6431L1263.07 121.078H1291.79V141.516H1263.26V216.132H1294.69V236.761H1259.4C1252.33 236.761 1246.81 234.962 1242.82 231.364C1238.97 227.765 1237.04 222.302 1237.04 214.975V141.516H1216.21V121.078H1237.23V107.255H1237.23L1237.19 80.6027Z" fill="#09090C"/>
<rect x="1450.96" y="210.769" width="26" height="26" fill="#09090C"/>
</svg>