<svg width="48" height="48" viewBox="0 0 48 48" fill="none" xmlns="http://www.w3.org/2000/svg"><path d="M12.7998 0.5H35.2002C37.4486 0.5 39.1052 0.500481 40.4141 0.607422C41.7169 0.713899 42.6319 0.923349 43.4053 1.31738C44.8163 2.0364 45.9636 3.18371 46.6826 4.59473C47.0767 5.36806 47.2861 6.28305 47.3926 7.58594C47.4995 8.89483 47.5 10.5514 47.5 12.7998V35.2002C47.5 37.4486 47.4995 39.1052 47.3926 40.4141C47.2861 41.7169 47.0767 42.6319 46.6826 43.4053C45.9636 44.8163 44.8163 45.9636 43.4053 46.6826C42.6319 47.0767 41.7169 47.2861 40.4141 47.3926C39.1052 47.4995 37.4486 47.5 35.2002 47.5H12.7998C10.5514 47.5 8.89483 47.4995 7.58594 47.3926C6.28305 47.2861 5.36806 47.0767 4.59473 46.6826C3.18371 45.9636 2.0364 44.8163 1.31738 43.4053C0.923349 42.6319 0.713899 41.7169 0.607422 40.4141C0.500481 39.1052 0.5 37.4486 0.5 35.2002V12.7998C0.5 10.5514 0.500481 8.89483 0.607422 7.58594C0.713899 6.28305 0.923349 5.36806 1.31738 4.59473C2.0364 3.18371 3.18371 2.0364 4.59473 1.31738C5.36806 0.923349 6.28305 0.713899 7.58594 0.607422C8.89483 0.500481 10.5514 0.5 12.7998 0.5Z" fill="url(#paint0_linear_1_889)"/><path d="M12.7998 0.5H35.2002C37.4486 0.5 39.1052 0.500481 40.4141 0.607422C41.7169 0.713899 42.6319 0.923349 43.4053 1.31738C44.8163 2.0364 45.9636 3.18371 46.6826 4.59473C47.0767 5.36806 47.2861 6.28305 47.3926 7.58594C47.4995 8.89483 47.5 10.5514 47.5 12.7998V35.2002C47.5 37.4486 47.4995 39.1052 47.3926 40.4141C47.2861 41.7169 47.0767 42.6319 46.6826 43.4053C45.9636 44.8163 44.8163 45.9636 43.4053 46.6826C42.6319 47.0767 41.7169 47.2861 40.4141 47.3926C39.1052 47.4995 37.4486 47.5 35.2002 47.5H12.7998C10.5514 47.5 8.89483 47.4995 7.58594 47.3926C6.28305 47.2861 5.36806 47.0767 4.59473 46.6826C3.18371 45.9636 2.0364 44.8163 1.31738 43.4053C0.923349 42.6319 0.713899 41.7169 0.607422 40.4141C0.500481 39.1052 0.5 37.4486 0.5 35.2002V12.7998C0.5 10.5514 0.500481 8.89483 0.607422 7.58594C0.713899 6.28305 0.923349 5.36806 1.31738 4.59473C2.0364 3.18371 3.18371 2.0364 4.59473 1.31738C5.36806 0.923349 6.28305 0.713899 7.58594 0.607422C8.89483 0.500481 10.5514 0.5 12.7998 0.5Z" stroke="#848486" class="svg-stroke"/><g clip-path="url(#clip0_1_889)"><path fill-rule="evenodd" clip-rule="evenodd" d="M21.9525 26.4675L27.936 22.0447C28.2292 21.8272 28.6485 21.912 28.7887 22.2487C29.5238 24.0255 29.1953 26.16 27.7313 27.6255C26.268 29.091 24.231 29.412 22.3695 28.68L20.3362 29.6227C23.253 31.6185 26.7945 31.125 29.0077 28.908C30.7635 27.15 31.3073 24.7537 30.7987 22.593L30.8032 22.5982C30.066 19.4242 30.9847 18.1553 32.8657 15.561C32.9107 15.4995 32.9557 15.438 33 15.375L30.5243 17.8537V17.8463L21.9503 26.469M20.7172 27.5422C18.6233 25.5397 18.9847 22.4415 20.7705 20.6543C22.0912 19.332 24.2557 18.792 26.145 19.5855L28.1737 18.648C27.7521 18.3378 27.2907 18.0856 26.802 17.898C25.5733 17.3951 24.2234 17.2668 22.922 17.5292C21.6206 17.7915 20.4258 18.4329 19.488 19.3725C17.5883 21.2745 16.9905 24.1995 18.0165 26.6955C18.783 28.5608 17.5268 29.88 16.2615 31.212C15.8123 31.6845 15.3623 32.1562 15 32.6558L20.715 27.5445" fill="white"/></g><defs><linearGradient id="paint0_linear_1_889" x1="23.5" y1="25.8902" x2="2.23442" y2="1.39312" gradientUnits="userSpaceOnUse"><stop stop-color="#2E2E2E"/><stop offset="1" stop-color="#5B5A5A"/></linearGradient><clipPath id="clip0_1_889"><rect width="18" height="18" fill="white" transform="translate(15 15)"/></clipPath></defs></svg>