<svg width="18" height="16" viewBox="0 0 18 16" fill="none" xmlns="http://www.w3.org/2000/svg" aria-label="warning">
<path fill-rule="evenodd" clip-rule="evenodd" d="M17.9744 14.7662C18.037 14.4226 17.9848 14.0843 17.8181 13.7511L10.3133 0.757443C10.1257 0.424271 9.85992 0.200424 9.51595 0.085896C9.17198 -0.028632 8.82802 -0.028632 8.48405 0.085896C8.14008 0.200424 7.87429 0.424271 7.68667 0.757443L0.181933 13.7511C0.0151605 14.0843 -0.0369552 14.4226 0.0255846 14.7662C0.0881244 15.1098 0.254895 15.4013 0.5259 15.6408C0.796906 15.8803 1.12002 16 1.49526 16H16.5047C16.88 16 17.2031 15.8803 17.4741 15.6408C17.7451 15.4013 17.9119 15.1098 17.9744 14.7662ZM8 4L8.19922 10H9.80078L10 4H8ZM10 13C10 13.5527 9.55273 14 9 14C8.74414 14 8.50977 13.9043 8.33398 13.7461C8.12891 13.5635 8 13.2969 8 13C8 12.4473 8.44727 12 9 12C9.55273 12 10 12.4473 10 13Z" fill="#ED2654"/>
</svg>
