<svg width="16" height="16" viewBox="0 0 16 16" fill="none" xmlns="http://www.w3.org/2000/svg" aria-label="alert" aria-hidden="true">
<path fill-rule="evenodd" clip-rule="evenodd" d="M15.332 0.667795C14.8867 0.222596 14.3594 0 13.75 0H2.25C1.64062 0 1.11328 0.222596 0.667969 0.667795C0.222654 1.11299 0 1.64019 0 2.24941V9.75059C0 10.3598 0.222654 10.887 0.667969 11.3322C1.11328 11.7774 1.64062 12 2.25 12H4.625V15.5735C4.625 15.7376 4.70117 15.8606 4.85352 15.9426C5.00586 16.0246 5.15234 16.0187 5.29297 15.925L9.6875 12H13.75C14.3594 12 14.8867 11.7774 15.332 11.3322C15.7773 10.887 16 10.3598 16 9.75059V2.24941C16 1.64019 15.7773 1.11299 15.332 0.667795ZM3 4C3 3.44772 3.44772 3 4 3H12C12.5523 3 13 3.44772 13 4C13 4.55228 12.5523 5 12 5H4C3.44772 5 3 4.55228 3 4ZM3 8C3 7.44772 3.44772 7 4 7H9C9.55228 7 10 7.44772 10 8C10 8.55228 9.55228 9 9 9H4C3.44772 9 3 8.55228 3 8Z" fill="#94A1AE"/>
</svg>
