<?xml version="1.0" encoding="utf-8"?>
<!-- Generator: Adobe Illustrator 25.0.1, SVG Export Plug-In . SVG Version: 6.00 Build 0)  -->
<svg version="1.1" id="Layer_1" xmlns="http://www.w3.org/2000/svg" xmlns:xlink="http://www.w3.org/1999/xlink" x="0px" y="0px"
     viewBox="0 0 244 286" style="enable-background:new 0 0 244 286;" xml:space="preserve">
<style type="text/css">
	.st0{fill-rule:evenodd;clip-rule:evenodd;fill:url(#Combined-Shape_1_);}
	.st1{opacity:0.4;fill-rule:evenodd;clip-rule:evenodd;fill:url(#Rectangle-Copy-2_3_);enable-background:new    ;}
	.st2{opacity:0.6;fill-rule:evenodd;clip-rule:evenodd;fill:url(#Rectangle-Copy-2_4_);enable-background:new    ;}
	.st3{opacity:0.8;fill-rule:evenodd;clip-rule:evenodd;fill:url(#Rectangle-Copy-2_5_);enable-background:new    ;}
	.st4{fill:#4E4D4D;}
	.st5{opacity:0.7;fill:#FFFFFF;enable-background:new    ;}
	.st6{opacity:0.6;fill:#FFFFFF;enable-background:new    ;}
	.st7{opacity:0.85;fill:#FFFFFF;enable-background:new    ;}
	.st8{opacity:0.95;fill:#FFFFFF;enable-background:new    ;}
	.st9{opacity:0.98;fill:#FFFFFF;enable-background:new    ;}
</style>
    <g>
	<g id="Logo-final" transform="translate(-1309.000000, -39.000000)">
		<g id="Group-5-Copy" transform="translate(1309.000000, 39.000000)">
				<linearGradient id="Combined-Shape_1_" gradientUnits="userSpaceOnUse" x1="-441.4724" y1="849.9865" x2="-441.4724" y2="848.9288"
                                gradientTransform="matrix(218.9737 0 0 -236.0072 96793.3438 200614.3438)">
				<stop offset="0" style="stop-color:#FFFFFF"/>
                    <stop offset="1" style="stop-color:#FFFFFF;stop-opacity:0.4993"/>
			</linearGradient>
            <path id="Combined-Shape" class="st0"
                  d="M136.4,30.2l87.5,74.7c7.8,6.7,9.7,17.7,5.3,26.4c3.8,6.8,3.7,15.2-0.4,22c4.8,7.8,4.2,18.1-2,25.4c-0.7,0.9-1.6,1.7-2.4,2.4l-87.5,74.7c-8.1,6.9-20.1,6.9-28.2,0l-87.5-74.7c-8.3-7-9.9-18.9-4.5-27.9c-3.9-6.4-4.3-14.5-0.8-21.2c-4.3-7.7-3.7-17.6,2.4-24.8c0.7-0.9,1.6-1.7,2.4-2.4l87.5-74.7C116.3,23.3,128.3,23.3,136.4,30.2z"/>
            <g id="Group-3">
					<linearGradient id="Rectangle-Copy-2_3_" gradientUnits="userSpaceOnUse" x1="-439.7335" y1="851.8093" x2="-438.7356" y2="850.8115"
                                    gradientTransform="matrix(118.3058 118.3058 118.3074 -118.3074 -48630.2891 152845.3438)">
					<stop offset="0" style="stop-color:#01C18C"/>
                        <stop offset="0.6186" style="stop-color:#008CAC"/>
                        <stop offset="1" style="stop-color:#4B6173"/>
				</linearGradient>
                <path id="Rectangle-Copy-2" class="st1"
                      d="M136.1,73.6l87.5,74.7c9.1,7.8,10.2,21.5,2.4,30.7c-0.7,0.9-1.6,1.7-2.4,2.4l-87.5,74.7c-8.1,6.9-20.1,6.9-28.2,0l-87.5-74.7c-9.1-7.8-10.2-21.5-2.4-30.7c0.7-0.9,1.6-1.7,2.4-2.4l87.5-74.7C116,66.6,128,66.6,136.1,73.6z"/>
                <linearGradient id="Rectangle-Copy-2_4_" gradientUnits="userSpaceOnUse" x1="-439.7335" y1="851.8093" x2="-438.7356" y2="850.8115"
                                gradientTransform="matrix(118.3058 118.3058 118.3073 -118.3073 -48630.2812 152822.6562)">
					<stop offset="0" style="stop-color:#4B6173"/>
                    <stop offset="0.6186" style="stop-color:#16B2E2"/>
                    <stop offset="1" style="stop-color:#01C18C"/>
				</linearGradient>
                <path id="Rectangle-Copy-2_1_" class="st2"
                      d="M136.1,50.9l87.5,74.7c9.1,7.8,10.2,21.5,2.4,30.7c-0.7,0.9-1.6,1.7-2.4,2.4l-87.5,74.7c-8.1,6.9-20.1,6.9-28.2,0l-87.5-74.7c-9.1-7.8-10.2-21.5-2.4-30.7c0.7-0.9,1.6-1.7,2.4-2.4l87.5-74.7C116,44,128,44,136.1,50.9z"/>
                <linearGradient id="Rectangle-Copy-2_5_" gradientUnits="userSpaceOnUse" x1="-439.718" y1="851.7938" x2="-438.7356" y2="850.8115"
                                gradientTransform="matrix(118.3058 118.3058 118.3074 -118.3074 -48630.6953 152802.1094)">
					<stop offset="0" style="stop-color:#F08600"/>
                    <stop offset="0.5092" style="stop-color:#E54D43"/>
                    <stop offset="1" style="stop-color:#16B2E2"/>
				</linearGradient>
                <path id="Rectangle-Copy-2_2_" class="st3"
                      d="M135.7,30.3l87.5,74.7c9.1,7.8,10.2,21.5,2.4,30.7c-0.7,0.9-1.6,1.7-2.4,2.4l-87.5,74.7c-8.1,6.9-20.1,6.9-28.2,0l-87.5-74.7c-9.1-7.8-10.2-21.5-2.4-30.7c0.7-0.9,1.6-1.7,2.4-2.4l87.5-74.7C115.6,23.4,127.6,23.4,135.7,30.3z"/>
			</g>
		</g>
	</g>
        <g>
		<path class="st4" d="M133.3,153.2v0.3l0,0C133.3,153.3,133.3,153.3,133.3,153.2"/>
            <path class="st5" d="M138.1,122h-16.4c0,5.5,0.9,10.9,2.6,16.2C132.2,136.9,138,130,138.1,122"/>
            <path class="st5" d="M174.5,124.8c-1,17.8-10.9,34-26.3,43c8,4.6,17.1,7.1,26.3,7.1V124.8z"/>
            <path class="st6" d="M105.2,122H68.7c0,14,5.6,27.4,15.5,37.3l25.8-25.8C106.9,130.5,105.2,126.4,105.2,122"/>
            <path class="st7" d="M121.6,138.3c-4.3,0-8.5-1.7-11.6-4.8l-25.8,25.8c9.9,9.9,23.4,15.5,37.4,15.5l0,0L121.6,138.3L121.6,138.3"/>
            <path class="st8" d="M121.9,105.2L121.9,105.2V68.7l0,0c-14.2,0-27.8,5.6-37.7,15.7l25.8,25.8C113,107,117.3,105.2,121.9,105.2"/>
            <path class="st5" d="M105.2,121.7c0-4.3,1.7-8.4,4.7-11.5L84.1,84.4c-9.9,9.9-15.4,23.4-15.4,37.3c0,0.1,0,0.1,0,0.3h36.4C105.1,121.9,105.1,121.8,105.2,121.7"/>
            <path class="st6" d="M133.3,110.1l25.8-25.8c-9.9-9.9-23.2-15.5-37.2-15.6v36.4C126.2,105.2,130.3,107,133.3,110.1"/>
            <path class="st5" d="M124.2,138.1c-0.8,0.1-1.7,0.2-2.6,0.2v36.4c9.3,0,18.5-2.4,26.5-7.1C136.8,161.1,128.3,150.6,124.2,138.1"/>
            <path class="st9" d="M174.5,124.8V122h-36.4c-0.1,8-6,14.9-13.9,16.2c4,12.5,12.6,23,23.9,29.6C163.6,158.7,173.5,142.6,174.5,124.8"/>
	</g>
</g>
</svg>
