<svg width="48" height="48" viewBox="0 0 48 48" fill="none" xmlns="http://www.w3.org/2000/svg"><path d="M12.7998 0.5H35.2002C37.4486 0.5 39.1052 0.500481 40.4141 0.607422C41.7169 0.713899 42.6319 0.923349 43.4053 1.31738C44.8163 2.0364 45.9636 3.18371 46.6826 4.59473C47.0767 5.36806 47.2861 6.28305 47.3926 7.58594C47.4995 8.89483 47.5 10.5514 47.5 12.7998V35.2002C47.5 37.4486 47.4995 39.1052 47.3926 40.4141C47.2861 41.7169 47.0767 42.6319 46.6826 43.4053C45.9636 44.8163 44.8163 45.9636 43.4053 46.6826C42.6319 47.0767 41.7169 47.2861 40.4141 47.3926C39.1052 47.4995 37.4486 47.5 35.2002 47.5H12.7998C10.5514 47.5 8.89483 47.4995 7.58594 47.3926C6.28305 47.2861 5.36806 47.0767 4.59473 46.6826C3.18371 45.9636 2.0364 44.8163 1.31738 43.4053C0.923349 42.6319 0.713899 41.7169 0.607422 40.4141C0.500481 39.1052 0.5 37.4486 0.5 35.2002V12.7998C0.5 10.5514 0.500481 8.89483 0.607422 7.58594C0.713899 6.28305 0.923349 5.36806 1.31738 4.59473C2.0364 3.18371 3.18371 2.0364 4.59473 1.31738C5.36806 0.923349 6.28305 0.713899 7.58594 0.607422C8.89483 0.500481 10.5514 0.5 12.7998 0.5Z" fill="url(#paint0_linear_1_925)"/><path d="M12.7998 0.5H35.2002C37.4486 0.5 39.1052 0.500481 40.4141 0.607422C41.7169 0.713899 42.6319 0.923349 43.4053 1.31738C44.8163 2.0364 45.9636 3.18371 46.6826 4.59473C47.0767 5.36806 47.2861 6.28305 47.3926 7.58594C47.4995 8.89483 47.5 10.5514 47.5 12.7998V35.2002C47.5 37.4486 47.4995 39.1052 47.3926 40.4141C47.2861 41.7169 47.0767 42.6319 46.6826 43.4053C45.9636 44.8163 44.8163 45.9636 43.4053 46.6826C42.6319 47.0767 41.7169 47.2861 40.4141 47.3926C39.1052 47.4995 37.4486 47.5 35.2002 47.5H12.7998C10.5514 47.5 8.89483 47.4995 7.58594 47.3926C6.28305 47.2861 5.36806 47.0767 4.59473 46.6826C3.18371 45.9636 2.0364 44.8163 1.31738 43.4053C0.923349 42.6319 0.713899 41.7169 0.607422 40.4141C0.500481 39.1052 0.5 37.4486 0.5 35.2002V12.7998C0.5 10.5514 0.500481 8.89483 0.607422 7.58594C0.713899 6.28305 0.923349 5.36806 1.31738 4.59473C2.0364 3.18371 3.18371 2.0364 4.59473 1.31738C5.36806 0.923349 6.28305 0.713899 7.58594 0.607422C8.89483 0.500481 10.5514 0.5 12.7998 0.5Z" stroke="#848486" class="svg-stroke"/><path d="M30.1753 20.8253H23.325L30.1753 15.0282V20.8253ZM24.675 20.3308H29.6809V16.0947L24.675 20.3308Z" fill="#EAE7E8"/><path d="M24.6354 20.8253H18.2796V14.9986L24.6354 20.8253ZM18.7741 20.3308H23.3646L18.7741 16.1227V20.3308Z" fill="#EAE7E8"/><mask id="mask0_1_925" style="mask-type:luminance" maskUnits="userSpaceOnUse" x="23" y="14" width="2" height="20"><path d="M23.746 14.6491H24.2562V33.3508H23.746V14.6491Z" fill="white"/></mask><g mask="url(#mask0_1_925)"><path d="M23.7536 14.6491H24.2481V33.3473H23.7536V14.6491Z" fill="#EAE7E8"/></g><path d="M29.7204 32.988L23.7585 27.6706V19.9814L29.727 25.9482L29.7204 32.988ZM24.253 27.4448L29.2325 31.8837V26.1526L24.253 21.1747V27.4448Z" fill="#EAE7E8"/><path d="M18.2796 32.9979V25.9482L24.253 19.9814V27.5239L18.2796 32.9979ZM18.7741 26.1526V31.8738L23.7585 27.3064V21.1747L18.7741 26.1526Z" fill="#EAE7E8"/><path d="M18.7741 28.1223H16V20.3308H24.5958L18.7741 26.1526V28.1223ZM16.4945 27.6278H18.2796V25.9482L23.4025 20.8253H16.4945V27.6278Z" fill="#EAE7E8"/><path d="M32 28.1223H29.2259V26.1526L23.4025 20.3308H32V28.1223ZM29.7204 27.6278H31.5055V20.8253H24.5959L29.7204 25.9482V27.6278Z" fill="#EAE7E8"/><defs><linearGradient id="paint0_linear_1_925" x1="23.5" y1="25.8902" x2="2.23442" y2="1.39312" gradientUnits="userSpaceOnUse"><stop stop-color="#2E2E2E"/><stop offset="1" stop-color="#5B5A5A"/></linearGradient></defs></svg>